<?xml version="1.0" encoding="UTF-8" standalone="no"?>
<!DOCTYPE svg PUBLIC "-//W3C//DTD SVG 1.1//EN" "http://www.w3.org/Graphics/SVG/1.1/DTD/svg11.dtd">
<svg width="100%" height="100%" viewBox="0 0 134 66" version="1.1" xmlns="http://www.w3.org/2000/svg" xmlns:xlink="http://www.w3.org/1999/xlink" xml:space="preserve" xmlns:serif="http://www.serif.com/" style="fill-rule:evenodd;clip-rule:evenodd;stroke-linejoin:round;stroke-miterlimit:1.41421;">
    <g transform="matrix(1,0,0,1,-416,-41)">
        <path d="M516.691,46.057L516.67,46.033C511.248,46.033 506.191,47.646 501.924,50.422L502.668,49.875C507.142,46.784 512.515,44.984 518.302,44.984L518.326,44.962L518.484,44.962C533.957,45.063 546.468,58.021 546.468,73.988C546.468,78.025 545.674,81.862 544.226,85.354C542.174,90.327 538.814,94.582 534.588,97.671C529.639,101.542 523.476,103.846 516.782,103.846L515.539,103.82L515.131,103.791L514.313,103.741L513.828,103.69L513.096,103.609L512.59,103.537L511.896,103.426L511.382,103.333L510.706,103.191L510.197,103.081L509.518,102.91L509.033,102.781L508.306,102.562L507.89,102.438L506.815,102.063L506.311,101.862L505.726,101.629L505.181,101.391L504.655,101.156L504.103,100.892L503.609,100.642L503.057,100.347L502.589,100.09L502.039,99.766L501.598,99.495L501.048,99.15L500.645,98.878L500.102,98.509L500.098,98.475C499.531,98.07 498.979,97.65 498.437,97.206L498.206,97.018L498.175,97.021L498.178,97.052L498.389,97.246C502.831,101.319 508.45,104.055 514.654,104.864L514.68,104.842L515.268,104.914L515.69,104.962C516.684,105.066 517.69,105.121 518.71,105.121C535.399,105.121 548.938,91.174 548.938,73.964C548.938,56.758 535.399,42.812 518.71,42.812C502.015,42.812 488.482,56.758 488.482,73.964C488.482,77.989 489.228,81.824 490.577,85.354L492.271,85.354L492.271,84.294L494.234,84.294L494.234,69.409L492.271,69.409L492.271,68.322L502.918,68.322L502.918,67.599L504.312,67.599L504.312,71.708L502.946,71.708L502.946,69.846L497.573,69.846L497.573,75.946L501.708,75.946L501.708,74.19L503.102,74.163L503.102,79.254L501.708,79.28L501.708,77.473L497.573,77.473L497.573,84.294L499.301,84.294L499.301,85.354L509.05,85.354C508.022,84.862 507.497,83.866 507.497,82.386L507.497,75.246L505.656,75.246L505.656,74.422L509.381,73.412L510.521,73.412L510.521,81.867C510.521,83.341 510.982,83.986 512.042,83.986C513.053,83.986 513.696,83.574 515.066,82.098L515.066,75.246L513.749,75.246L513.749,74.317L517.159,73.412L518.093,73.412L518.093,83.804L519.9,83.804L519.9,84.654L517.111,85.354L524.899,85.354C522.662,84.55 521.268,82.438 521.268,79.59C521.268,75.841 523.622,73.362 527.189,73.362C530.186,73.362 532.176,75.224 532.176,78.066L532.176,79.047L524.453,79.047C524.453,82.254 525.898,84.243 528.226,84.243C529.181,84.243 529.697,84.037 531.686,82.849L532.282,83.986C531.06,84.673 530.218,85.098 529.471,85.354L534.091,85.354L534.091,84.294L535.618,84.294L535.618,68.168L533.882,68.168L533.882,67.338L537.605,66.33L538.639,66.33L538.639,84.294L540.166,84.294L540.166,85.354L542.244,85.354C543.571,82.021 544.306,78.37 544.306,74.542C544.306,58.935 532.123,46.254 517.027,46.059L516.691,46.057ZM515.071,83.415C514.104,84.423 513.401,85.021 512.7,85.357L515.071,85.357L515.071,83.415ZM527.165,74.473C525.794,74.473 524.707,75.769 524.474,77.732L528.974,77.732L528.974,77.108C528.974,75.562 528.226,74.473 527.165,74.473Z" style="fill:rgb(16,92,158);fill-rule:nonzero;"/>
        <path d="M448.15,73.362C444.684,73.362 442.176,75.944 442.176,79.542C442.176,83.106 444.684,85.717 448.15,85.717C451.613,85.717 454.145,83.106 454.145,79.542C454.145,75.944 451.613,73.362 448.15,73.362ZM439.286,68.127L439.286,69.214L441.151,69.214L436.447,81.262L431.659,69.21L433.262,69.214L433.262,68.127L427.114,68.127L427.114,69.214L428.561,69.214L430.241,73.491L427.262,81.078L422.633,69.214L424.082,69.214L424.082,68.127L417.797,68.127L417.797,69.214L419.328,69.214L425.734,85.63L427.39,85.63L431.182,75.889L435,85.63L436.651,85.63L443.064,69.214L444.36,69.214L444.36,68.127L439.286,68.127ZM448.15,84.426C446.57,84.426 445.459,82.407 445.459,79.542C445.459,76.642 446.57,74.629 448.15,74.629C449.726,74.629 450.838,76.642 450.838,79.542C450.838,82.407 449.726,84.426 448.15,84.426ZM463.219,73.362C462.492,73.362 461.899,73.724 460.968,74.758L460.373,75.406L460.373,73.412L459.24,73.412L455.513,74.422L455.513,75.246L457.322,75.246L457.322,84.296L455.801,84.296L455.801,85.383L462.185,85.383L462.185,84.296L460.373,84.296L460.373,77.134C461.074,76.232 461.486,75.896 461.976,75.896C462.286,75.896 462.598,76.076 463.27,76.566L464.897,74.317L464.098,73.621C463.915,73.441 463.608,73.362 463.219,73.362Z" style="fill:rgb(108,118,128);fill-rule:nonzero;"/>
        <path d="M470.17,66.33L469.138,66.33L465.413,67.34L465.413,68.168L467.146,68.168L467.146,84.296L465.622,84.296L465.622,85.386L471.696,85.386L471.696,84.296L470.17,84.296L470.17,66.33ZM484.025,83.804L484.025,66.33L482.885,66.33L479.162,67.34L479.162,68.168L480.974,68.168L480.974,73.695C480.146,73.417 479.813,73.362 479.088,73.362C475.546,73.362 472.855,76.155 472.855,79.798C472.855,83.209 474.926,85.717 477.797,85.717C479.112,85.717 479.762,85.383 480.974,84.142L480.974,85.64L482.11,85.64L485.837,84.658L485.837,83.804L484.025,83.804ZM480.979,82.796C480.199,83.571 479.527,83.936 478.858,83.936C477.355,83.936 476.141,81.92 476.141,79.438C476.141,76.674 477.641,74.552 479.58,74.552C480.535,74.552 480.979,75.145 480.979,76.515" style="fill:rgb(108,118,128);fill-rule:nonzero;"/>
        <path d="M499.783,95.787L499.783,95.449C500.225,95.706 500.628,95.823 501.19,95.823C502.322,95.823 503.122,95.053 503.122,93.954C503.122,93.572 503.033,93.255 502.853,92.958C502.685,92.694 502.486,92.482 502.262,92.329L501.432,91.789C500.506,91.201 500.282,90.958 500.282,90.572C500.282,90.121 500.671,89.761 501.173,89.761C501.528,89.761 501.787,89.857 502.195,90.121L502.195,90.783L502.716,90.783L502.716,89.132L502.195,89.132L502.195,89.422C501.826,89.266 501.528,89.209 501.151,89.209C499.973,89.209 499.193,89.917 499.193,90.975C499.193,91.402 499.315,91.789 499.562,92.067C499.807,92.36 499.925,92.456 500.87,93.054C501.768,93.632 502.046,93.942 502.046,94.378C502.046,94.88 501.614,95.238 501.017,95.238C500.542,95.238 500.215,95.108 499.783,94.762L499.783,94.05L499.248,94.05L499.248,95.787L499.783,95.787ZM508.126,95.178L507.905,94.753C507.158,95.197 506.964,95.274 506.606,95.274C505.738,95.274 505.2,94.532 505.2,93.332L508.082,93.332L508.082,92.97C508.082,91.904 507.343,91.208 506.222,91.208C504.888,91.208 504.01,92.139 504.01,93.536C504.01,94.909 504.866,95.823 506.162,95.823C506.842,95.823 507.178,95.71 508.126,95.178ZM506.892,92.842L505.21,92.842C505.294,92.106 505.699,91.623 506.213,91.623C506.606,91.623 506.892,92.029 506.892,92.61" style="fill:rgb(108,118,128);fill-rule:nonzero;"/>
        <path d="M511.387,95.701L511.387,95.295L510.71,95.295L510.71,92.622C510.97,92.281 511.128,92.154 511.31,92.154C511.428,92.154 511.546,92.223 511.793,92.406L512.402,91.568L512.102,91.309C512.033,91.237 511.922,91.208 511.774,91.208C511.505,91.208 511.279,91.345 510.931,91.729L510.71,91.974L510.71,91.23L510.286,91.23L508.894,91.606L508.894,91.916L509.573,91.916L509.573,95.295L509.004,95.295L509.004,95.701L511.387,95.701ZM517.426,91.729L517.426,91.321L515.938,91.321L515.938,91.729L516.516,91.729L515.59,94.134L514.613,91.729L515.03,91.729L515.03,91.321L513.154,91.321L513.154,91.729L513.413,91.729L515.071,95.826L515.446,95.826L516.996,91.729" style="fill:rgb(108,118,128);fill-rule:nonzero;"/>
        <path d="M520.519,95.701L520.519,95.295L519.946,95.295L519.946,91.227L519.566,91.227L518.177,91.606L518.177,91.916L518.813,91.916L518.813,95.295L518.244,95.295L518.244,95.701L520.519,95.701ZM519.336,88.882C518.962,88.882 518.65,89.192 518.65,89.569C518.65,89.955 518.962,90.255 519.336,90.255C519.713,90.255 520.022,89.955 520.022,89.569C520.022,89.192 519.713,88.882 519.336,88.882Z" style="fill:rgb(108,118,128);fill-rule:nonzero;"/>
        <path d="M525.168,95.312L524.921,94.887C524.424,95.187 524.203,95.274 523.894,95.274C523.19,95.274 522.542,94.376 522.542,93.411C522.542,92.533 522.922,91.954 523.673,91.635C524.114,91.858 524.213,91.933 524.561,92.264L525.168,91.657C524.707,91.326 524.318,91.208 523.644,91.208C522.329,91.208 521.338,92.233 521.338,93.586C521.338,94.887 522.226,95.826 523.481,95.826C524.002,95.826 524.448,95.689 525.168,95.312ZM530.064,95.178L529.846,94.753C529.099,95.197 528.907,95.274 528.55,95.274C527.678,95.274 527.141,94.532 527.141,93.332L530.026,93.332L530.026,92.97C530.026,91.904 529.284,91.208 528.163,91.208C526.831,91.208 525.953,92.139 525.953,93.536C525.953,94.909 526.81,95.823 528.106,95.823C528.782,95.823 529.118,95.71 530.064,95.178ZM528.833,92.842L527.148,92.842C527.237,92.106 527.642,91.623 528.156,91.623C528.55,91.623 528.833,92.029 528.833,92.61L528.833,92.842ZM531.564,95.787L531.564,95.437C531.854,95.698 532.248,95.823 532.812,95.823C533.786,95.823 534.343,95.329 534.343,94.484C534.343,93.788 534.024,93.421 533.078,93.046C532.058,92.638 531.902,92.523 531.902,92.166C531.902,91.837 532.181,91.626 532.596,91.626C533.078,91.626 533.551,91.935 533.551,92.262L533.498,92.578L533.986,92.578L534.226,91.189L533.726,91.189L533.666,91.542C533.388,91.304 533.059,91.208 532.584,91.208C531.658,91.208 531.043,91.741 531.043,92.542C531.043,93.219 531.391,93.601 532.327,93.961C533.273,94.316 533.513,94.51 533.513,94.902C533.513,95.209 533.222,95.41 532.762,95.41C532.164,95.41 531.622,95.062 531.622,94.676L531.622,94.414L531.091,94.414L531.091,95.787" style="fill:rgb(108,118,128);fill-rule:nonzero;"/>
        <path d="M548.976,93.738C548.976,92.266 547.793,91.114 546.305,91.114C544.788,91.114 543.586,92.266 543.586,93.738C543.586,95.209 544.788,96.375 546.29,96.375C547.793,96.375 548.976,95.209 548.976,93.738ZM544.255,93.738C544.255,92.588 545.141,91.642 546.274,91.642C547.44,91.642 548.306,92.588 548.306,93.752C548.306,94.904 547.44,95.85 546.305,95.835C545.141,95.835 544.255,94.904 544.255,93.738ZM545.873,95.098L545.873,94.057L546.161,94.057C546.499,94.057 546.66,94.184 546.708,94.458L546.809,94.863L546.914,95.098L547.553,95.098L547.466,94.892L547.361,94.458C547.279,94.107 547.152,93.898 546.9,93.817L546.9,93.786C547.202,93.69 547.44,93.481 547.44,93.159C547.44,92.907 547.327,92.715 547.171,92.602C546.991,92.473 546.768,92.394 546.274,92.394L545.695,92.425L545.266,92.473L545.266,95.098L545.873,95.098ZM545.887,93.63L545.887,92.874L546.223,92.842C546.61,92.842 546.787,93.001 546.787,93.241C546.787,93.512 546.516,93.63 546.18,93.63" style="fill:rgb(108,118,128);fill-rule:nonzero;"/>
    </g>
</svg>
